<mxfile host="65bd71144e">
    <diagram id="qVVUnOZMqZA3BwxEI8Fk" name="auth_flow_draft">
        <mxGraphModel dx="733" dy="572" grid="1" gridSize="10" guides="1" tooltips="1" connect="1" arrows="1" fold="1" page="1" pageScale="1" pageWidth="827" pageHeight="1169" math="0" shadow="0">
            <root>
                <mxCell id="0"/>
                <mxCell id="1" parent="0"/>
                <mxCell id="2" value="API FLOW" style="text;html=1;resizable=0;autosize=1;align=center;verticalAlign=middle;points=[];fillColor=none;strokeColor=none;rounded=0;" vertex="1" parent="1">
                    <mxGeometry x="310" y="20" width="70" height="20" as="geometry"/>
                </mxCell>
                <mxCell id="3" value="register new user / sign up" style="rounded=0;whiteSpace=wrap;html=1;" vertex="1" parent="1">
                    <mxGeometry x="425" y="80" width="150" height="60" as="geometry"/>
                </mxCell>
                <mxCell id="14" style="edgeStyle=none;html=1;entryX=0.5;entryY=0;entryDx=0;entryDy=0;exitX=0.5;exitY=1;exitDx=0;exitDy=0;" edge="1" parent="1" source="3" target="8">
                    <mxGeometry relative="1" as="geometry"/>
                </mxCell>
                <mxCell id="7" value="Error out, please sign in" style="rounded=0;whiteSpace=wrap;html=1;" vertex="1" parent="1">
                    <mxGeometry x="430" y="380" width="140" height="60" as="geometry"/>
                </mxCell>
                <mxCell id="9" value="" style="edgeStyle=none;html=1;exitX=0.5;exitY=1;exitDx=0;exitDy=0;" edge="1" parent="1" source="8" target="7">
                    <mxGeometry relative="1" as="geometry"/>
                </mxCell>
                <mxCell id="12" style="edgeStyle=none;html=1;entryX=-0.014;entryY=0.625;entryDx=0;entryDy=0;entryPerimeter=0;exitX=1;exitY=0.5;exitDx=0;exitDy=0;" edge="1" parent="1" source="8" target="11">
                    <mxGeometry relative="1" as="geometry">
                        <mxPoint x="420" y="115" as="sourcePoint"/>
                    </mxGeometry>
                </mxCell>
                <mxCell id="8" value="check user in db" style="rhombus;whiteSpace=wrap;html=1;" vertex="1" parent="1">
                    <mxGeometry x="460" y="225" width="80" height="70" as="geometry"/>
                </mxCell>
                <mxCell id="11" value="1. create a new user and save password in db&lt;br&gt;2.Generate a JWT token" style="rounded=0;whiteSpace=wrap;html=1;" vertex="1" parent="1">
                    <mxGeometry x="590" y="225" width="140" height="60" as="geometry"/>
                </mxCell>
                <mxCell id="21" value="" style="group" vertex="1" connectable="0" parent="1">
                    <mxGeometry x="20" y="80" width="380" height="360" as="geometry"/>
                </mxCell>
                <mxCell id="5" value="validate user / sign in" style="rounded=0;whiteSpace=wrap;html=1;" vertex="1" parent="21">
                    <mxGeometry width="150" height="60" as="geometry"/>
                </mxCell>
                <mxCell id="15" value="check user in db" style="rhombus;whiteSpace=wrap;html=1;" vertex="1" parent="21">
                    <mxGeometry x="36" y="140" width="80" height="80" as="geometry"/>
                </mxCell>
                <mxCell id="16" style="edgeStyle=none;html=1;entryX=0.5;entryY=0;entryDx=0;entryDy=0;" edge="1" parent="21" source="5" target="15">
                    <mxGeometry relative="1" as="geometry"/>
                </mxCell>
                <mxCell id="17" value="1. Verify password &lt;br&gt;2. Generate a JWT token" style="whiteSpace=wrap;html=1;" vertex="1" parent="21">
                    <mxGeometry x="210" y="150" width="120" height="60" as="geometry"/>
                </mxCell>
                <mxCell id="18" value="" style="edgeStyle=none;html=1;exitX=1;exitY=0.5;exitDx=0;exitDy=0;" edge="1" parent="21" source="15" target="17">
                    <mxGeometry relative="1" as="geometry">
                        <Array as="points"/>
                    </mxGeometry>
                </mxCell>
                <mxCell id="19" value="Error out, please sign&lt;br&gt;up" style="whiteSpace=wrap;html=1;" vertex="1" parent="21">
                    <mxGeometry x="16" y="300" width="120" height="60" as="geometry"/>
                </mxCell>
                <mxCell id="20" value="" style="edgeStyle=none;html=1;" edge="1" parent="21" source="15" target="19">
                    <mxGeometry relative="1" as="geometry"/>
                </mxCell>
                <mxCell id="10" value="user exists" style="text;html=1;align=center;verticalAlign=middle;resizable=0;points=[];autosize=1;strokeColor=none;fillColor=none;" vertex="1" parent="21">
                    <mxGeometry x="130" y="160" width="70" height="20" as="geometry"/>
                </mxCell>
                <mxCell id="22" value="&lt;span style=&quot;color: rgb(240 , 240 , 240) ; font-family: &amp;#34;helvetica&amp;#34; ; font-size: 12px ; font-style: normal ; font-weight: 400 ; letter-spacing: normal ; text-align: center ; text-indent: 0px ; text-transform: none ; word-spacing: 0px ; background-color: rgb(42 , 42 , 42) ; display: inline ; float: none&quot;&gt;user not exists&lt;/span&gt;" style="text;whiteSpace=wrap;html=1;" vertex="1" parent="21">
                    <mxGeometry x="100" y="240" width="80" height="30" as="geometry"/>
                </mxCell>
                <mxCell id="23" value="&lt;span style=&quot;color: rgb(240 , 240 , 240) ; font-family: &amp;#34;helvetica&amp;#34; ; font-size: 12px ; font-style: normal ; font-weight: 400 ; letter-spacing: normal ; text-align: center ; text-indent: 0px ; text-transform: none ; word-spacing: 0px ; background-color: rgb(42 , 42 , 42) ; display: inline ; float: none&quot;&gt;user not exists&lt;/span&gt;" style="text;whiteSpace=wrap;html=1;" vertex="1" parent="1">
                    <mxGeometry x="510" y="320" width="80" height="30" as="geometry"/>
                </mxCell>
            </root>
        </mxGraphModel>
    </diagram>
</mxfile>